REM DIRINDEX 1\2,1\3,1\4
REM DIRNAME folder01,folder02,folder03,folder04
TITLE ""
FILE "DISC2Track12.mp3" MP3
  TRACK 01 AUDIO
    TITLE "0:"
    INDEX 01 00:00:00
  TRACK 02 AUDIO
    TITLE "4:cjc105_2378"
    INDEX 01 00:00:17
  TRACK 03 AUDIO
    TITLE "0:"
    INDEX 01 00:03:35
  TRACK 04 AUDIO
    TITLE "2:cjc105_2379"
    INDEX 01 00:04:05
  TRACK 05 AUDIO
    TITLE "3:cjc105_2380"
    INDEX 01 00:05:14
  TRACK 06 AUDIO
    TITLE "0:"
    INDEX 01 00:06:31
  TRACK 07 AUDIO
    TITLE "2:cjc105_2381"
    INDEX 01 00:06:43
  TRACK 08 AUDIO
    TITLE "3:cjc105_2382"
    INDEX 01 00:08:21
  TRACK 09 AUDIO
    TITLE "0:"
    INDEX 01 00:10:10
  TRACK 10 AUDIO
    TITLE "2:cjc105_2383"
    INDEX 01 00:10:23
  TRACK 11 AUDIO
    TITLE "3:cjc105_2384"
    INDEX 01 00:11:64
  TRACK 12 AUDIO
    TITLE "0:"
    INDEX 01 00:14:23
  TRACK 13 AUDIO
    TITLE "2:cjc105_2385"
    INDEX 01 00:14:33
  TRACK 14 AUDIO
    TITLE "3:cjc105_2386"
    INDEX 01 00:16:16
  TRACK 15 AUDIO
    TITLE "0:"
    INDEX 01 00:17:49
  TRACK 16 AUDIO
    TITLE "2:cjc105_2387"
    INDEX 01 00:17:61
  TRACK 17 AUDIO
    TITLE "3:cjc105_2388"
    INDEX 01 00:19:18
  TRACK 18 AUDIO
    TITLE "0:"
    INDEX 01 00:21:08
  TRACK 19 AUDIO
    TITLE "2:cjc105_2389"
    INDEX 01 00:21:21
  TRACK 20 AUDIO
    TITLE "3:cjc105_2390"
    INDEX 01 00:23:03
  TRACK 21 AUDIO
    TITLE "0:"
    INDEX 01 00:24:27
  TRACK 22 AUDIO
    TITLE "2:cjc105_2391"
    INDEX 01 00:24:41
  TRACK 23 AUDIO
    TITLE "3:cjc105_2392"
    INDEX 01 00:25:60
  TRACK 24 AUDIO
    TITLE "0:"
    INDEX 01 00:27:08
  TRACK 25 AUDIO
    TITLE "2:cjc105_2393"
    INDEX 01 00:27:24
  TRACK 26 AUDIO
    TITLE "3:cjc105_2394"
    INDEX 01 00:29:09
  TRACK 27 AUDIO
    TITLE "0:"
    INDEX 01 00:31:16
  TRACK 28 AUDIO
    TITLE "2:cjc105_2395"
    INDEX 01 00:31:27
  TRACK 29 AUDIO
    TITLE "3:cjc105_2396"
    INDEX 01 00:33:01
  TRACK 30 AUDIO
    TITLE "0:"
    INDEX 01 00:34:71
  TRACK 31 AUDIO
    TITLE "2:cjc105_2397"
    INDEX 01 00:35:06
  TRACK 32 AUDIO
    TITLE "3:cjc105_2398"
    INDEX 01 00:37:03
  TRACK 33 AUDIO
    TITLE "0:"
    INDEX 01 00:38:47
  TRACK 34 AUDIO
    TITLE "2:cjc105_2399"
    INDEX 01 00:38:59
  TRACK 35 AUDIO
    TITLE "3:cjc105_2400"
    INDEX 01 00:40:17
  TRACK 36 AUDIO
    TITLE "0:"
    INDEX 01 00:42:72
  TRACK 37 AUDIO
    TITLE "2:cjc105_2401"
    INDEX 01 00:43:09
  TRACK 38 AUDIO
    TITLE "3:cjc105_2402"
    INDEX 01 00:44:38
  TRACK 39 AUDIO
    TITLE "0:"
    INDEX 01 00:46:15
  TRACK 40 AUDIO
    TITLE "2:cjc105_2403"
    INDEX 01 00:46:23
  TRACK 41 AUDIO
    TITLE "3:cjc105_2404"
    INDEX 01 00:47:21
  TRACK 42 AUDIO
    TITLE "0:"
    INDEX 01 00:48:63
  TRACK 43 AUDIO
    TITLE "2:cjc105_2405"
    INDEX 01 00:48:73
  TRACK 44 AUDIO
    TITLE "3:cjc105_2406"
    INDEX 01 00:50:37
  TRACK 45 AUDIO
    TITLE "0:"
    INDEX 01 00:52:20
  TRACK 46 AUDIO
    TITLE "2:cjc105_2407"
    INDEX 01 00:52:39
  TRACK 47 AUDIO
    TITLE "3:cjc105_2408"
    INDEX 01 00:53:74
  TRACK 48 AUDIO
    TITLE "0:"
    INDEX 01 00:56:16
  TRACK 49 AUDIO
    TITLE "2:cjc105_2409"
    INDEX 01 00:56:31
  TRACK 50 AUDIO
    TITLE "3:cjc105_2410"
    INDEX 01 00:58:01
  TRACK 51 AUDIO
    TITLE "0:"
    INDEX 01 00:59:43
  TRACK 52 AUDIO
    TITLE "2:cjc105_2411"
    INDEX 01 00:59:55
  TRACK 53 AUDIO
    TITLE "3:cjc105_2412"
    INDEX 01 01:01:17
  TRACK 54 AUDIO
    TITLE "0:"
    INDEX 01 01:03:08
  TRACK 55 AUDIO
    TITLE "2:cjc105_2413"
    INDEX 01 01:03:18
  TRACK 56 AUDIO
    TITLE "3:cjc105_2414"
    INDEX 01 01:04:66
  TRACK 57 AUDIO
    TITLE "0:"
    INDEX 01 01:06:06
  TRACK 58 AUDIO
    TITLE "2:cjc105_2415"
    INDEX 01 01:06:18
  TRACK 59 AUDIO
    TITLE "3:cjc105_2416"
    INDEX 01 01:07:61
  TRACK 60 AUDIO
    TITLE "0:"
    INDEX 01 01:09:57
  TRACK 61 AUDIO
    TITLE "2:cjc105_2417"
    INDEX 01 01:09:73
  TRACK 62 AUDIO
    TITLE "3:cjc105_2418"
    INDEX 01 01:11:25
  TRACK 63 AUDIO
    TITLE "0:"
    INDEX 01 01:13:06
  TRACK 64 AUDIO
    TITLE "2:cjc105_2419"
    INDEX 01 01:13:18
  TRACK 65 AUDIO
    TITLE "3:cjc105_2420"
    INDEX 01 01:14:74
  TRACK 66 AUDIO
    TITLE "0:"
    INDEX 01 01:16:40
  TRACK 67 AUDIO
    TITLE "2:cjc105_2421"
    INDEX 01 01:16:52
  TRACK 68 AUDIO
    TITLE "3:cjc105_2422"
    INDEX 01 01:18:17
  TRACK 69 AUDIO
    TITLE "0:"
    INDEX 01 01:19:58
  TRACK 70 AUDIO
    TITLE "2:cjc105_2423"
    INDEX 01 01:19:74
  TRACK 71 AUDIO
    TITLE "3:cjc105_2424"
    INDEX 01 01:21:67
  TRACK 72 AUDIO
    TITLE "0:"
    INDEX 01 01:24:14
  TRACK 73 AUDIO
    TITLE "2:cjc105_2425"
    INDEX 01 01:24:26
  TRACK 74 AUDIO
    TITLE "3:cjc105_2426"
    INDEX 01 01:26:07
  TRACK 75 AUDIO
    TITLE "0:"
    INDEX 01 01:27:46
  TRACK 76 AUDIO
    TITLE "2:cjc105_2427"
    INDEX 01 01:27:59
  TRACK 77 AUDIO
    TITLE "3:cjc105_2428"
    INDEX 01 01:29:41
  TRACK 78 AUDIO
    TITLE "0:"
    INDEX 01 01:31:39
  TRACK 79 AUDIO
    TITLE "2:cjc105_2429"
    INDEX 01 01:31:49
  TRACK 80 AUDIO
    TITLE "3:cjc105_2430"
    INDEX 01 01:33:29
  TRACK 81 AUDIO
    TITLE "0:"
    INDEX 01 01:35:22
  TRACK 82 AUDIO
    TITLE "2:cjc105_2431"
    INDEX 01 01:35:33
  TRACK 83 AUDIO
    TITLE "3:cjc105_2432"
    INDEX 01 01:37:05
  TRACK 84 AUDIO
    TITLE "0:"
    INDEX 01 01:39:02
  TRACK 85 AUDIO
    TITLE "2:cjc105_2433"
    INDEX 01 01:39:15
  TRACK 86 AUDIO
    TITLE "3:cjc105_2434"
    INDEX 01 01:40:68
  TRACK 87 AUDIO
    TITLE "0:"
    INDEX 01 01:43:15
  TRACK 88 AUDIO
    TITLE "2:cjc105_2435"
    INDEX 01 01:43:29
  TRACK 89 AUDIO
    TITLE "3:cjc105_2436"
    INDEX 01 01:45:45
  TRACK 90 AUDIO
    TITLE "0:"
    INDEX 01 01:47:56
  TRACK 91 AUDIO
    TITLE "2:cjc105_2437"
    INDEX 01 01:47:74
  TRACK 92 AUDIO
    TITLE "3:cjc105_2438"
    INDEX 01 01:49:41
  TRACK 93 AUDIO
    TITLE "0:"
    INDEX 01 01:51:25
  TRACK 94 AUDIO
    TITLE "2:cjc105_2439"
    INDEX 01 01:51:36
  TRACK 95 AUDIO
    TITLE "3:cjc105_2440"
    INDEX 01 01:53:27
  TRACK 96 AUDIO
    TITLE "0:"
    INDEX 01 01:54:46
  TRACK 97 AUDIO
    TITLE "2:cjc105_2441"
    INDEX 01 01:54:72
  TRACK 98 AUDIO
    TITLE "3:cjc105_2442"
    INDEX 01 01:56:28
  TRACK 99 AUDIO
    TITLE "0:"
    INDEX 01 01:57:74
  TRACK 100 AUDIO
    TITLE "2:cjc105_2443"
    INDEX 01 01:58:27
  TRACK 101 AUDIO
    TITLE "3:cjc105_2444"
    INDEX 01 01:59:57
  TRACK 102 AUDIO
    TITLE "0:"
    INDEX 01 02:01:23
  TRACK 103 AUDIO
    TITLE "2:cjc105_2445"
    INDEX 01 02:01:37
  TRACK 104 AUDIO
    TITLE "3:cjc105_2446"
    INDEX 01 02:03:02
  TRACK 105 AUDIO
    TITLE "0:"
    INDEX 01 02:03:71
  TRACK 106 AUDIO
    TITLE "2:cjc105_2447"
    INDEX 01 02:04:08
  TRACK 107 AUDIO
    TITLE "3:cjc105_2448"
    INDEX 01 02:05:19
  TRACK 108 AUDIO
    TITLE "0:"
    INDEX 01 02:06:55
  TRACK 109 AUDIO
    TITLE "2:cjc105_2449"
    INDEX 01 02:06:69
  TRACK 110 AUDIO
    TITLE "3:cjc105_2450"
    INDEX 01 02:08:58
  TRACK 111 AUDIO
    TITLE "0:"
    INDEX 01 02:10:02
  TRACK 112 AUDIO
    TITLE "2:cjc105_2451"
    INDEX 01 02:10:18
  TRACK 113 AUDIO
    TITLE "3:cjc105_2452"
    INDEX 01 02:11:41
  TRACK 114 AUDIO
    TITLE "0:"
    INDEX 01 02:13:07
  TRACK 115 AUDIO
    TITLE "2:cjc105_2453"
    INDEX 01 02:13:22
  TRACK 116 AUDIO
    TITLE "3:cjc105_2454"
    INDEX 01 02:15:03
  TRACK 117 AUDIO
    TITLE "0:"
    INDEX 01 02:16:72
